HIERARCHY
ROOT Hips
{
	OFFSET 0.000000 0.000000 0.000000
	CHANNELS 6 Xposition Yposition Zposition Xrotation Yrotation Zrotation
	JOINT LeftUpLeg_virtual
	{
		OFFSET 0.000000 0.000000 0.000000
		CHANNELS 3 Xrotation Yrotation Zrotation
		JOINT LeftUpLeg
		{
			OFFSET 11.394100 -6.187798 -0.413800
			CHANNELS 3 Xrotation Yrotation Zrotation
			JOINT LeftLeg
			{
				OFFSET 0.430247 -32.302673 3.732800
				CHANNELS 3 Xrotation Yrotation Zrotation
				JOINT LeftFoot
				{
					OFFSET -0.430247 -48.264931 -6.423300
					CHANNELS 3 Xrotation Yrotation Zrotation
					JOINT LeftToeBase
					{
						OFFSET 4.230900 -16.068199 23.438400
						CHANNELS 3 Xrotation Yrotation Zrotation
						JOINT LeftToe_End
						{
							OFFSET 4.510700 0.695400 19.974600
							CHANNELS 3 Xrotation Yrotation Zrotation
							End Site
							{
								OFFSET 0 0 0
							}
						}
					}
				}
			}
		}
	}
	JOINT RightUpLeg_virtual
	{
		OFFSET 0.000000 0.000000 0.000000
		CHANNELS 3 Xrotation Yrotation Zrotation
		JOINT RightUpLeg
		{
			OFFSET -11.333700 -6.187798 -0.413800
			CHANNELS 3 Xrotation Yrotation Zrotation
			JOINT RightLeg
			{
				OFFSET -0.430392 -32.302628 3.733000
				CHANNELS 3 Xrotation Yrotation Zrotation
				JOINT RightFoot
				{
					OFFSET 0.430392 -48.264973 -6.423500
					CHANNELS 3 Xrotation Yrotation Zrotation
					JOINT RightToeBase
					{
						OFFSET -4.230900 -16.068199 23.438400
						CHANNELS 3 Xrotation Yrotation Zrotation
						JOINT RightToe_End
						{
							OFFSET -4.510700 0.695400 19.974600
							CHANNELS 3 Xrotation Yrotation Zrotation
							End Site
							{
								OFFSET 0 0 0
							}
						}
					}
				}
			}
		}
	}
	JOINT Spine_virtual
	{
		OFFSET 0.000000 0.000000 0.000000
		CHANNELS 3 Xrotation Yrotation Zrotation
		JOINT Spine
		{
			OFFSET -0.002400 12.777504 0.315300
			CHANNELS 3 Xrotation Yrotation Zrotation
			JOINT Spine1
			{
				OFFSET -0.002067 5.816869 0.032633
				CHANNELS 3 Xrotation Yrotation Zrotation
				JOINT Spine1_split
				{
					OFFSET -0.002067 5.816869 0.032633
					CHANNELS 3 Xrotation Yrotation Zrotation
					JOINT Spine2
					{
						OFFSET -0.002067 5.816869 0.032633
						CHANNELS 3 Xrotation Yrotation Zrotation
						JOINT Neck_virtual
						{
							OFFSET 0.000000 0.000000 0.000000
							CHANNELS 3 Xrotation Yrotation Zrotation
							JOINT Neck
							{
								OFFSET -0.003700 21.199493 -0.826900
								CHANNELS 3 Xrotation Yrotation Zrotation
								JOINT Head
								{
									OFFSET 0.000000 20.442200 4.834800
									CHANNELS 3 Xrotation Yrotation Zrotation
									JOINT HeadTop_End
									{
										OFFSET 0.000000 34.668396 4.968400
										CHANNELS 3 Xrotation Yrotation Zrotation
										End Site
										{
											OFFSET 0 0 0
										}
									}
								}
							}
						}
						JOINT LeftShoulder_virtual
						{
							OFFSET 0.000000 0.000000 0.000000
							CHANNELS 3 Xrotation Yrotation Zrotation
							JOINT LeftShoulder
							{
								OFFSET 3.288150 8.794197 -1.372250
								CHANNELS 3 Xrotation Yrotation Zrotation
								JOINT LeftShoulder_split
								{
									OFFSET 3.288150 8.794197 -1.372250
									CHANNELS 3 Xrotation Yrotation Zrotation
									JOINT LeftArm
									{
										OFFSET 11.953299 -2.279007 -0.146200
										CHANNELS 3 Xrotation Yrotation Zrotation
										JOINT LeftForeArm
										{
											OFFSET 18.448900 0.000000 0.000000
											CHANNELS 3 Xrotation Yrotation Zrotation
											JOINT LeftHand
											{
												OFFSET 29.527798 0.000000 0.000000
												CHANNELS 3 Xrotation Yrotation Zrotation
												End Site
												{
													OFFSET 0 0 0
												}
											}
										}
									}
								}
							}
						}
						JOINT RightShoulder_virtual
						{
							OFFSET 0.000000 0.000000 0.000000
							CHANNELS 3 Xrotation Yrotation Zrotation
							JOINT RightShoulder
							{
								OFFSET -3.249400 8.794197 -1.372250
								CHANNELS 3 Xrotation Yrotation Zrotation
								JOINT RightShoulder_split
								{
									OFFSET -3.249400 8.794197 -1.372250
									CHANNELS 3 Xrotation Yrotation Zrotation
									JOINT RightArm
									{
										OFFSET -11.953299 -2.279007 -0.146200
										CHANNELS 3 Xrotation Yrotation Zrotation
										JOINT RightForeArm
										{
											OFFSET -18.448900 0.000000 0.000000
											CHANNELS 3 Xrotation Yrotation Zrotation
											JOINT RightHand
											{
												OFFSET -29.527802 0.000000 0.000000
												CHANNELS 3 Xrotation Yrotation Zrotation
												End Site
												{
													OFFSET 0 0 0
												}
											}
										}
									}
								}
							}
						}
					}
				}
			}
		}
	}
}
MOTION
Frames: 7
Frame Time: 0.03333333
-3.802004 87.296463 -5.897308 0.000000 0.000000 0.000000 7.808866 -52.923297 9.268763 -40.413109 16.946994 28.148827 39.024221 -9.744345 -4.003714 -3.568590 1.863358 -11.770512 -0.217107 -1.532782 -3.672514 0.000000 0.000000 0.000000 7.143293 -51.423224 8.819600 -33.999316 -3.797706 -21.771621 45.284550 12.800210 -4.455834 -15.404566 -7.117265 29.390123 8.434992 11.357601 -20.792662 0.000000 0.000000 0.000000 3.984196 -43.892117 6.618781 8.260140 3.909600 -5.427592 9.942921 -3.583072 -4.175098 0.266492 -0.517239 0.072909 0.000000 0.000000 0.000000 14.015995 -0.624544 -4.535080 -14.311713 25.155781 7.178374 -20.296716 38.472939 16.949898 0.000000 0.000000 0.000000 13.738335 -3.216868 -4.944509 -0.377753 -0.250259 -2.500375 -2.694727 -4.559775 -0.532812 -27.684365 -8.046540 -32.352919 14.966189 -31.405637 10.145895 0.000000 0.000000 0.000000 15.421954 -1.734373 -4.204132 -9.740681 3.667497 -0.110781 5.079188 3.613737 2.899899 -42.258425 -19.760391 35.388419 174.540689 69.146731 -173.931355 0.000000 0.000000 0.000000 
-3.803112 87.169807 -5.833614 0.000000 0.000000 0.000000 7.675954 -53.053412 9.262675 -40.154805 17.166489 28.180107 39.291486 -10.119681 -3.903285 -3.705005 1.833916 -11.777321 -0.724450 -1.562697 -3.466592 0.000000 0.000000 0.000000 7.066290 -51.499971 8.809736 -34.094972 -3.889082 -21.833731 45.619291 12.689899 -4.396067 -15.267780 -7.327895 28.906464 7.901210 11.452251 -20.467160 0.000000 0.000000 0.000000 3.227271 -44.025835 6.336225 7.965617 3.821420 -5.463817 9.714777 -3.551560 -4.182115 0.187317 -0.396132 0.081297 0.000000 0.000000 0.000000 13.664038 -0.606412 -4.599767 -14.083386 25.139561 7.105621 -20.936181 39.184515 16.872818 0.000000 0.000000 0.000000 13.602545 -3.214750 -4.960321 -0.337759 -0.165622 -2.810265 -2.812926 -4.128792 -0.646871 -28.077900 -8.963464 -32.911943 15.524508 -32.025903 10.485548 0.000000 0.000000 0.000000 15.196693 -1.748401 -4.248704 -9.824077 3.798864 0.410804 5.662597 4.496192 4.302898 -41.310012 -20.140899 36.614117 175.094194 71.022349 -174.354089 0.000000 0.000000 0.000000 
-3.830520 87.175308 -5.686848 0.000000 0.000000 0.000000 7.616936 -53.294238 9.217461 -39.665391 17.561192 28.211967 39.407678 -10.482200 -3.769216 -4.025676 1.935275 -11.493208 -1.431875 -1.581806 -3.325376 0.000000 0.000000 0.000000 7.031567 -51.663650 8.723763 -33.864368 -4.276433 -21.875347 45.444486 12.582866 -4.323359 -15.047026 -7.462565 28.522631 7.318387 11.510617 -20.290170 0.000000 0.000000 0.000000 2.847244 -43.895990 6.101291 7.272606 3.697968 -5.497159 9.174827 -3.531792 -4.248058 0.169963 -0.324427 0.061236 0.000000 0.000000 0.000000 13.012685 -0.573216 -4.694585 -14.201262 25.282396 6.883278 -21.648018 40.164029 16.943491 0.000000 0.000000 0.000000 13.059914 -3.188515 -5.010340 -0.334784 -0.075043 -3.591282 -3.232245 -3.485670 -0.723344 -28.666352 -9.857645 -33.895944 15.732960 -32.594202 10.416848 0.000000 0.000000 0.000000 14.569306 -1.744790 -4.296411 -9.961313 3.696380 1.385065 6.048210 4.828437 4.004814 -40.704232 -20.110471 38.857441 174.522316 74.467572 -173.701491 0.000000 0.000000 0.000000 
-3.897310 87.396431 -5.551979 0.000000 0.000000 0.000000 7.740697 -53.498413 9.173115 -39.075898 17.999099 28.241926 39.102509 -10.750199 -3.658390 -4.355639 2.132171 -11.061959 -1.849638 -1.581590 -3.385924 0.000000 0.000000 0.000000 7.136428 -51.860926 8.642257 -33.369207 -4.849848 -21.857847 44.533342 12.517783 -4.234259 -14.684244 -7.407332 28.373521 6.860394 11.535962 -20.313908 0.000000 0.000000 0.000000 3.108766 -43.591767 6.057673 6.319505 3.572054 -5.478462 8.452324 -3.522130 -4.360870 0.166347 -0.291595 0.047409 0.000000 0.000000 0.000000 12.199696 -0.521666 -4.798956 -14.731840 25.585708 6.569958 -22.595784 41.543970 17.125752 0.000000 0.000000 0.000000 12.254225 -3.146403 -5.111136 -0.372406 -0.078594 -4.642323 -3.912572 -2.654299 -0.666508 -29.207702 -10.363476 -35.052944 15.713663 -33.230694 10.067305 0.000000 0.000000 0.000000 13.675465 -1.733715 -4.355700 -10.084036 3.373477 2.579723 6.148243 4.284028 2.647664 -40.776762 -19.687773 41.500721 172.286085 78.601530 -171.466421 0.000000 0.000000 0.000000 
-3.976260 87.896049 -5.477146 0.000000 0.000000 0.000000 8.058446 -53.624915 9.150101 -38.577701 18.275865 28.286202 38.274731 -11.022916 -3.579299 -4.228025 2.283239 -10.834238 -1.770715 -1.575866 -3.601264 0.000000 0.000000 0.000000 7.470282 -52.031336 8.656970 -32.657252 -5.481865 -21.713641 42.771092 12.545881 -4.136152 -14.080438 -7.084947 28.528368 6.509008 11.560809 -20.543524 0.000000 0.000000 0.000000 4.025610 -43.265823 6.235669 5.269699 3.484180 -5.369115 7.668933 -3.527717 -4.474921 0.116656 -0.316507 0.061857 0.000000 0.000000 0.000000 11.395460 -0.471965 -4.894660 -15.725940 26.032730 6.204026 -24.211135 43.257108 17.494725 0.000000 0.000000 0.000000 11.380296 -3.102727 -5.214245 -0.439490 -0.275633 -5.530375 -4.605234 -1.918456 -0.766352 -29.526406 -10.162358 -36.037946 15.695075 -34.057031 9.706301 0.000000 0.000000 0.000000 12.699652 -1.724213 -4.404284 -10.185108 2.945086 3.677788 5.914880 3.186949 1.517460 -41.298780 -19.050250 43.992005 166.932241 82.420344 -166.197477 0.000000 0.000000 0.000000 
-4.035190 88.663345 -5.451439 0.000000 0.000000 0.000000 8.524064 -53.642199 9.173099 -38.223026 18.318960 28.317327 36.932236 -11.314570 -3.563718 -3.496271 2.291394 -10.810369 -1.383941 -1.609764 -3.739368 0.000000 0.000000 0.000000 8.015129 -52.132583 8.752674 -31.885235 -6.045710 -21.397596 40.275515 12.609036 -3.999863 -13.201755 -6.566655 28.858526 6.292619 11.578413 -20.885619 0.000000 0.000000 0.000000 5.309220 -43.123468 6.555123 4.363753 3.444334 -5.142099 6.992561 -3.534153 -4.568432 0.064538 -0.388280 0.101478 0.000000 0.000000 0.000000 10.819938 -0.449286 -4.959684 -17.024619 26.621492 5.790442 -26.913724 45.395251 18.143976 0.000000 0.000000 0.000000 10.666501 -3.086127 -5.282544 -0.525037 -0.679027 -5.870229 -4.934142 -1.252700 -0.946233 -29.765882 -9.290026 -36.770323 16.015675 -35.223135 9.649408 0.000000 0.000000 0.000000 11.877851 -1.744950 -4.439684 -10.274095 2.580895 4.396422 5.809484 2.199729 0.789906 -41.972954 -18.418152 45.769511 157.499449 84.890550 -156.906507 0.000000 0.000000 0.000000 
-4.017529 89.554489 -5.571976 0.000000 0.000000 0.000000 8.953850 -53.512107 9.128940 -38.034547 18.195624 28.396530 35.362557 -11.600565 -3.634280 -2.407403 2.131907 -10.827837 -1.012430 -1.688507 -3.635994 0.000000 0.000000 0.000000 8.585152 -52.194110 8.823315 -31.215505 -6.472318 -20.940549 37.620986 12.634796 -3.843700 -12.093166 -5.978577 29.023209 6.404871 11.564711 -21.243830 0.000000 0.000000 0.000000 6.626339 -43.178728 6.896336 3.723697 3.465341 -4.784567 6.574609 -3.541433 -4.613278 0.006756 -0.456388 0.140742 0.000000 0.000000 0.000000 10.575007 -0.471373 -4.979043 -18.451927 27.303169 5.337904 -30.760518 47.787589 19.156309 0.000000 0.000000 0.000000 10.256058 -3.088502 -5.283759 -0.610973 -1.260030 -5.505238 -5.095143 -0.841780 -1.326588 -29.994810 -7.924898 -37.120538 16.897488 -36.803569 10.148008 0.000000 0.000000 0.000000 11.383297 -1.813619 -4.455451 -10.331007 2.497032 4.607814 5.836935 1.460636 0.892159 -42.292429 -18.014252 46.541582 150.650067 85.633900 -150.184727 0.000000 0.000000 0.000000 
